<svg width="200" height="56" viewBox="0 0 200 56" fill="none" xmlns="http://www.w3.org/2000/svg">
<path d="M65.226 38.5753C63.7349 41.4413 62.2849 44.2422 60.8112 47.0305C60.6694 47.2987 60.3839 47.6808 60.1583 47.6855C57.8504 47.7339 55.541 47.7151 53.0634 47.7151C53.7841 46.3188 54.4263 45.0678 55.0744 43.82C56.4166 41.2356 57.7819 38.6629 59.0831 36.058C59.264 35.6959 59.3079 35.0841 59.1238 34.7479C57.0089 30.8854 54.8383 27.0535 52.6795 23.2152C52.5979 23.0701 52.4854 22.9424 52.3451 22.748C51.9871 23.4122 51.6657 24.0086 51.4687 24.374C49.7459 24.0962 48.1726 23.8044 46.5875 23.6068C46.0011 23.5337 45.3678 23.6771 45.2226 24.4334C45.0717 25.2204 45.5995 25.5786 46.2134 25.806C47.382 26.2388 48.5906 26.5713 49.7388 27.0506C53.2539 28.5183 54.6014 31.4989 53.3332 34.8795C52.6667 36.6564 51.2917 37.6783 49.5587 38.1693C45.6279 39.2828 41.8188 39.0661 38.1667 36.7492C38.1282 37.2834 38.0957 37.7344 38.0611 38.2151C35.9876 38.2151 33.9513 38.2151 31.8333 38.2151C31.7884 37.6249 31.7436 37.0357 31.681 36.2135C29.3788 38.4512 26.7751 39.1442 23.8406 38.6538C20.8494 38.154 18.8277 36.335 17.1808 33.819C17.1808 35.2681 17.1808 36.7171 17.1808 38.1983C11.3727 38.1983 5.70004 38.1983 0 38.1983C0 28.1981 0 18.2463 0 8.25488C5.69357 8.25488 11.3397 8.25488 17.0477 8.25488C17.0477 10.2253 17.0477 12.1812 17.0477 14.2158C13.6635 14.2158 10.3121 14.2158 6.87973 14.2158C6.87973 16.21 6.87973 18.128 6.87973 20.1285C10.0938 20.1285 13.3056 20.1285 16.6758 20.1285C16.6758 21.7271 16.6758 23.252 16.6758 24.7769C16.7645 24.8166 16.8531 24.8564 16.9417 24.8962C18.3125 22.1466 20.1989 19.9687 23.2921 19.2948C26.2785 18.6441 29.0753 19.0824 31.5925 21.2539C31.6399 20.6472 31.6758 20.189 31.7181 19.6478C33.8149 19.6478 35.9043 19.6478 38.1305 19.6478C38.1305 24.7756 38.1305 29.9105 38.1305 35.0453C38.2189 35.0733 38.3073 35.1013 38.3957 35.1293C39.0231 34.0845 39.6505 33.0396 40.2535 32.0355C41.3971 32.625 42.4237 33.2752 43.5386 33.685C44.2474 33.9455 45.1095 33.9834 45.8593 33.8586C46.2679 33.7906 46.8 33.2148 46.8782 32.7938C46.9441 32.439 46.5258 31.8455 46.1598 31.5932C45.6018 31.2086 44.8903 31.0551 44.2686 30.7528C43.3063 30.2847 42.3378 29.8195 41.4193 29.2731C37.8551 27.1529 38.4804 21.9374 41.8902 20.1873C44.083 19.0618 46.3972 18.9527 48.7771 19.1006C51.5716 19.2743 54.3673 19.4454 57.165 19.5432C57.853 19.5673 58.2031 19.7703 58.5203 20.3765C59.8545 22.926 61.247 25.445 62.6226 27.9727C62.7977 28.2945 62.9985 28.6023 63.286 29.0805C64.3311 26.8384 65.3007 24.7483 66.2796 22.6626C66.7491 21.6624 66.991 20.2735 67.7825 19.7834C68.6213 19.2639 69.9899 19.5865 71.1276 19.5701C72.3965 19.5517 73.6659 19.5658 75.1336 19.5658C71.7821 25.9955 68.5214 32.2511 65.226 38.5753ZM23.1667 28.2511C23.0154 30.5277 23.8448 32.1694 25.5227 32.9143C27.196 33.6572 29.3645 33.3121 30.5586 32.1129C31.8468 30.8193 32.2113 28.688 31.4326 27.0026C30.6596 25.3294 28.9094 24.3563 27.0179 24.5479C25.0465 24.7476 23.7026 25.99 23.1667 28.2511ZM16.3873 30.2777C16.3873 28.9418 16.3873 27.606 16.3873 26.2378C13.2628 26.2378 10.0868 26.2378 6.86445 26.2378C6.86445 28.2448 6.86445 30.1988 6.86445 32.1714C10.1663 32.1714 13.4006 32.1714 16.6846 32.1714C16.5815 31.5469 16.4919 31.0037 16.3873 30.2777Z" fill="#101010"/>
<path d="M130.058 35.0166C130.154 35.3497 130.245 35.6844 130.347 36.0155C130.917 37.853 130.924 37.8758 129.047 38.3896C128.317 38.5896 127.555 38.7259 126.8 38.7772C122.645 39.0591 120.117 36.9074 119.84 32.7206C119.686 30.4044 119.769 28.0725 119.746 25.7477C119.742 25.3727 119.745 24.9977 119.745 24.5604C119.177 24.5604 118.713 24.5604 118.128 24.5604C118.128 26.1647 118.189 27.7566 118.11 29.3414C118.04 30.7547 117.978 32.203 117.625 33.5608C116.76 36.8848 114.173 38.1994 111.059 38.5818C107.447 39.0252 103.847 39.0648 100.586 37.0093C100.515 36.9648 100.392 37.0037 100.115 37.0037C100.221 37.4188 100.315 37.7844 100.432 38.2415C98.127 38.2415 95.8447 38.2592 93.5637 38.213C93.3449 38.2086 93.0388 37.8436 92.9356 37.5818C92.3503 36.0982 91.7954 34.6017 91.2713 33.0952C91.0654 32.5034 90.7949 32.2135 90.0982 32.2221C86.8393 32.2619 83.5793 32.2604 80.3203 32.2205C79.6629 32.2125 79.4174 32.4756 79.2221 33.0357C78.6855 34.5745 78.1221 36.1051 77.5104 37.615C77.4014 37.8841 77.0133 38.2125 76.7477 38.2183C74.535 38.2667 72.3208 38.2458 69.9583 38.2458C74.0143 28.1837 78.0259 18.2321 82.0628 8.21784C84.0063 8.21784 85.9446 8.18859 87.88 8.25052C88.1589 8.25944 88.552 8.65471 88.6762 8.95943C91.5146 15.9212 94.3226 22.8953 97.1379 29.8665C97.2967 30.2597 97.4695 30.6472 97.8587 30.9752C97.8587 27.2227 97.8587 23.4702 97.8587 19.6401C100.042 19.6401 102.131 19.6401 104.332 19.6401C104.332 20.5974 104.325 21.5258 104.334 22.454C104.358 24.9869 104.285 27.5266 104.448 30.0508C104.625 32.8005 106.158 33.8841 108.89 33.4711C110.157 33.2795 111.021 32.5887 111.295 31.3557C111.527 30.3151 111.65 29.2334 111.673 28.1668C111.726 25.6687 111.69 23.1687 111.69 20.6695C111.69 20.3307 111.69 19.992 111.69 19.5581C114.406 19.5581 117.023 19.5581 119.738 19.5581C119.738 17.2258 119.738 14.9874 119.738 12.6802C121.898 12.6802 123.961 12.6802 126.159 12.6802C126.159 14.9225 126.159 17.1861 126.159 19.5402C127.525 19.5402 128.759 19.5402 130.11 19.5402C130.11 20.6631 130.11 21.6942 130.092 22.8795C129.777 23.5307 129.479 24.0276 129.088 24.5108C128.102 24.4971 127.208 24.4971 126.231 24.4971C126.231 26.7376 126.163 28.9102 126.252 31.0766C126.324 32.8555 127.061 33.2727 128.854 32.7548C129.3 33.5314 129.679 34.274 130.058 35.0166ZM84.8135 18.483C83.8469 21.0176 82.8803 23.5521 81.8898 26.1493C84.1762 26.1493 86.3196 26.1493 88.5858 26.1493C87.462 23.2274 86.3853 20.4277 85.2376 17.4436C85.0556 17.8923 84.9651 18.1154 84.8135 18.483ZM100.087 36.8785C100.129 36.9063 100.171 36.9341 100.212 36.9619C100.205 36.8994 100.198 36.8369 100.087 36.8785Z" fill="#101010"/>
<path d="M129.181 24.5253C129.479 24.0283 129.777 23.5314 130.102 22.971C130.796 22.3684 131.449 21.8118 132.13 21.293C136.994 17.5918 145.733 18.2013 149.347 24.0518C149.438 24.1991 149.524 24.3495 149.654 24.5677C149.94 24.2565 150.12 24.1031 150.249 23.9144C152.705 20.3066 156.26 18.9805 160.452 19.0204C163.438 19.0488 166.064 20.0082 168.313 22.0406C171.199 24.6483 172.181 29.2934 170.492 32.824C168.686 36.5997 165.53 38.3991 161.509 38.7759C158.739 39.0354 155.984 38.7494 153.617 37.1562C152.383 36.3254 151.397 35.1239 150.309 34.0792C150.116 33.8941 149.973 33.6564 149.864 33.515C148.844 34.5499 147.957 35.6718 146.861 36.5244C142.398 39.996 135.037 39.5508 130.942 35.6498C130.72 35.4382 130.464 35.2616 130.141 35.0431C129.679 34.2748 129.3 33.5322 128.857 32.6742C128.638 31.6176 128.445 30.6808 128.337 29.7342C128.132 27.9254 128.564 26.2074 129.181 24.5253ZM141.752 25.1304C141.564 25.0425 141.378 24.9488 141.187 24.8677C139.11 23.9869 136.656 24.8082 135.613 26.732C134.588 28.6217 135.108 31.2461 136.751 32.4779C138.479 33.7732 141.263 33.502 142.73 31.9001C144.127 30.3745 144.479 27.1354 141.752 25.1304ZM158.352 32.9999C160.203 33.5399 161.938 33.4304 163.312 31.9154C164.513 30.5917 164.718 28.9925 164.149 27.3517C163.497 25.473 161.696 24.3733 159.777 24.5325C157.799 24.6966 156.21 26.0312 155.864 27.8178C155.408 30.1671 156.222 31.9436 158.352 32.9999Z" fill="#1677FF"/>
<path d="M199.152 21.9825C199.152 22.8466 199.152 23.6086 199.152 24.4882C198.462 24.4882 197.814 24.4882 197.165 24.4882C196.549 24.4882 195.934 24.4882 195.274 24.4882C195.274 26.8334 195.178 29.0833 195.307 31.3203C195.398 32.9079 196.259 33.3101 197.759 32.7268C197.912 32.6671 198.065 32.6047 198.297 32.5117C198.825 34.2256 199.331 35.871 199.872 37.6289C197.297 38.9281 194.686 39.3232 192.065 38.1508C189.508 37.0073 188.911 34.6002 188.794 32.0856C188.694 29.9377 188.769 27.7817 188.767 25.6293C188.766 25.2884 188.766 24.9476 188.766 24.5588C188.015 24.5588 187.348 24.5588 186.595 24.5588C186.595 29.1267 186.595 33.6261 186.595 38.1852C184.416 38.1852 182.323 38.1852 180.197 38.1852C180.185 37.9815 180.165 37.8115 180.165 37.6414C180.164 31.6733 180.164 25.7051 180.164 19.6236C183.015 19.6236 185.834 19.6236 188.724 19.6236C188.724 17.2664 188.724 15.0206 188.724 12.6924C190.886 12.6924 192.977 12.6924 195.191 12.6924C195.191 14.9402 195.191 17.2096 195.191 19.5571C196.546 19.5571 197.782 19.5571 199.152 19.5571C199.152 20.382 199.152 21.1312 199.152 21.9825Z" fill="#101010"/>
<path d="M174.677 30.4834C176.799 30.5067 178.271 31.447 178.925 33.1376C179.524 34.6825 179.121 36.4652 177.911 37.6313C176.706 38.7931 174.916 39.1266 173.39 38.4738C171.681 37.7421 170.649 35.947 170.883 34.1121C171.129 32.1887 172.552 30.7998 174.677 30.4834Z" fill="#101010"/>
<path d="M187.26 12.318C186.694 14.4973 185.274 15.7102 183.413 15.6871C181.779 15.6667 180.21 14.4865 179.796 12.9258C179.387 11.385 179.763 10.0497 180.964 8.98673C182.138 7.94761 183.5 7.72755 184.918 8.33442C186.367 8.95442 187.178 10.1041 187.271 11.7112C187.281 11.8834 187.269 12.0569 187.26 12.318Z" fill="#101010"/>
<path d="M100.139 36.8271C100.198 36.8376 100.205 36.9001 100.212 36.9626C100.171 36.9348 100.129 36.907 100.139 36.8271Z" fill="white"/>
</svg>
